@startuml
hide circle
rectangle "sample-service" as sample-service {
    rectangle "infra" as sample-service/infra {
        rectangle "BigQuery" as sample-service/infra/BigQuery {
            circle "tv_show" as sample-service/infra/BigQuery/tv_show
            circle "article" as sample-service/infra/BigQuery/article
            circle "movie" as sample-service/infra/BigQuery/movie
        }
        rectangle "CloudSQL" as sample-service/infra/CloudSQL {
            circle "user-service" as sample-service/infra/CloudSQL/user-service
            circle "article-service" as sample-service/infra/CloudSQL/article-service
            circle "movie-service" as sample-service/infra/CloudSQL/movie-service
            circle "talent-service" as sample-service/infra/CloudSQL/talent-service
            circle "tv-show-service" as sample-service/infra/CloudSQL/tv-show-service
        }
        rectangle "kubernetes" as sample-service/infra/kubernetes {
            rectangle "ingress" as sample-service/infra/kubernetes/ingress {
                class "admin" as sample-service/infra/kubernetes/ingress/admin {
                    admin.sample-service.comでアクセス化\nIAPによる認証あり
                }
                class "user" as sample-service/infra/kubernetes/ingress/user {
                    sample-service.comでアクセス化
                }
            }
            rectangle "job" as sample-service/infra/kubernetes/job {
                rectangle "purge-past-data" as sample-service/infra/kubernetes/job/purge-past-data {
                    class "ref(sample-service/repository/workflows/purge-past-data)" as sample-service/infra/kubernetes/job/purge-past-data/sample-service/repository/workflows/purge-past-data {
                        schedule: 0 0,12 * * *\n過去の記事とテレビ番組を削除します\n（映画は削除しません）
                    }
                }
                rectangle "scrape-and-load-articles" as sample-service/infra/kubernetes/job/scrape-and-load-articles {
                    class "ref(sample-service/repository/workflows/scrape-and-load-articles)" as sample-service/infra/kubernetes/job/scrape-and-load-articles/sample-service/repository/workflows/scrape-and-load-articles {
                        schedule: 0,30 * * * *
                    }
                }
                rectangle "scrape-and-load-movies" as sample-service/infra/kubernetes/job/scrape-and-load-movies {
                    class "ref(sample-service/repository/workflows/scrape-and-load-movies)" as sample-service/infra/kubernetes/job/scrape-and-load-movies/sample-service/repository/workflows/scrape-and-load-movies {
                        schedule: 0,30 * * * *
                    }
                }
                rectangle "scrape-and-load-tv-shows" as sample-service/infra/kubernetes/job/scrape-and-load-tv-shows {
                    class "ref(sample-service/repository/workflows/scrape-and-load-tv-shows)" as sample-service/infra/kubernetes/job/scrape-and-load-tv-shows/sample-service/repository/workflows/scrape-and-load-tv-shows {
                        schedule: 0,30 * * * *
                    }
                }
            }
            rectangle "service" as sample-service/infra/kubernetes/service {
                circle "article-internal-api" as sample-service/infra/kubernetes/service/article-internal-api
                circle "movie-internal-api" as sample-service/infra/kubernetes/service/movie-internal-api
                circle "talent-internal-api" as sample-service/infra/kubernetes/service/talent-internal-api
                circle "tv-show-internal-api" as sample-service/infra/kubernetes/service/tv-show-internal-api
                circle "user-external-api" as sample-service/infra/kubernetes/service/user-external-api
                circle "admin-external-api" as sample-service/infra/kubernetes/service/admin-external-api
            }
        }
    }
}
"sample-service/infra/kubernetes/ingress/admin" --> "sample-service/infra/kubernetes/service/admin-external-api"
"sample-service/infra/kubernetes/ingress/user" --> "sample-service/infra/kubernetes/service/user-external-api"
"sample-service/infra/kubernetes/job/purge-past-data/sample-service/repository/workflows/purge-past-data" --|> "sample-service/infra/CloudSQL/article-service"
"sample-service/infra/kubernetes/job/purge-past-data/sample-service/repository/workflows/purge-past-data" --|> "sample-service/infra/CloudSQL/tv-show-service"
"sample-service/infra/kubernetes/job/scrape-and-load-articles/sample-service/repository/workflows/scrape-and-load-articles" ..|> "sample-service/infra/BigQuery/article"
"sample-service/infra/kubernetes/job/scrape-and-load-articles/sample-service/repository/workflows/scrape-and-load-articles" --|> "sample-service/infra/CloudSQL/article-service"
"sample-service/infra/kubernetes/job/scrape-and-load-articles/sample-service/repository/workflows/scrape-and-load-articles" --|> "sample-service/infra/BigQuery/article"
"sample-service/infra/kubernetes/job/scrape-and-load-articles/sample-service/repository/workflows/scrape-and-load-articles" ..|> "sample-service/infra/kubernetes/service/talent-internal-api"
"sample-service/infra/kubernetes/job/scrape-and-load-movies/sample-service/repository/workflows/scrape-and-load-movies" --|> "sample-service/infra/BigQuery/movie"
"sample-service/infra/kubernetes/job/scrape-and-load-movies/sample-service/repository/workflows/scrape-and-load-movies" ..|> "sample-service/infra/kubernetes/service/talent-internal-api"
"sample-service/infra/kubernetes/job/scrape-and-load-movies/sample-service/repository/workflows/scrape-and-load-movies" ..|> "sample-service/infra/BigQuery/movie"
"sample-service/infra/kubernetes/job/scrape-and-load-movies/sample-service/repository/workflows/scrape-and-load-movies" --|> "sample-service/infra/CloudSQL/movie-service"
"sample-service/infra/kubernetes/job/scrape-and-load-tv-shows/sample-service/repository/workflows/scrape-and-load-tv-shows" ..|> "sample-service/infra/BigQuery/tv_show"
"sample-service/infra/kubernetes/job/scrape-and-load-tv-shows/sample-service/repository/workflows/scrape-and-load-tv-shows" --|> "sample-service/infra/CloudSQL/tv-show-service"
"sample-service/infra/kubernetes/job/scrape-and-load-tv-shows/sample-service/repository/workflows/scrape-and-load-tv-shows" --|> "sample-service/infra/BigQuery/tv_show"
"sample-service/infra/kubernetes/job/scrape-and-load-tv-shows/sample-service/repository/workflows/scrape-and-load-tv-shows" ..|> "sample-service/infra/kubernetes/service/talent-internal-api"
"sample-service/infra/kubernetes/service/article-internal-api" ..|> "sample-service/infra/CloudSQL/article-service"
"sample-service/infra/kubernetes/service/movie-internal-api" ..|> "sample-service/infra/CloudSQL/movie-service"
"sample-service/infra/kubernetes/service/talent-internal-api" --|> "sample-service/infra/CloudSQL/talent-service"
"sample-service/infra/kubernetes/service/talent-internal-api" ..|> "sample-service/infra/CloudSQL/talent-service"
"sample-service/infra/kubernetes/service/tv-show-internal-api" ..|> "sample-service/infra/CloudSQL/tv-show-service"
"sample-service/infra/kubernetes/service/user-external-api" ..|> "sample-service/infra/CloudSQL/user-service"
"sample-service/infra/kubernetes/service/user-external-api" ..|> "sample-service/infra/kubernetes/service/article-internal-api"
"sample-service/infra/kubernetes/service/user-external-api" --|> "sample-service/infra/CloudSQL/user-service"
"sample-service/infra/kubernetes/service/user-external-api" ..|> "sample-service/infra/kubernetes/service/tv-show-internal-api"
"sample-service/infra/kubernetes/service/user-external-api" ..|> "sample-service/infra/kubernetes/service/movie-internal-api"
"sample-service/infra/kubernetes/service/user-external-api" ..|> "sample-service/infra/kubernetes/service/talent-internal-api"
"sample-service/infra/kubernetes/service/admin-external-api" --|> "sample-service/infra/kubernetes/service/talent-internal-api"
"sample-service/infra/kubernetes/service/admin-external-api" ..|> "sample-service/infra/kubernetes/service/talent-internal-api"
@enduml
