@startuml
hide circle
rectangle "sample-service" as sample-service {
    rectangle "infra" as sample-service/infra {
        rectangle "CloudSQL" as sample-service/infra/CloudSQL {
            rectangle "movie-service" as sample-service/infra/CloudSQL/movie-service {
                class "movies" as sample-service/infra/CloudSQL/movie-service/movies {
                    【スキーマ】\nid: string PRIMARY_KEY\nname: string NOT_NULL\nimage_url: string NOT_NULL\ndescription: string NOT_NULL 
                }
                class "movie_talents" as sample-service/infra/CloudSQL/movie-service/movie_talents {
                    【スキーマ】\nmovie/id: string PRIMARY_KEY\ntalent_id: string PRIMARY_KEY
                }
            }
        }
    }
    rectangle "repository" as sample-service/repository {
        rectangle "movie-service" as sample-service/repository/movie-service {
            rectangle "internal-api" as sample-service/repository/movie-service/internal-api {
                class "映画取得API" as sample-service/repository/movie-service/internal-api/映画取得API {
                    GET /internal/api/v1/movies\n指定したタレントに関連する映画一覧を返します\n\n【リクエスト】\n{\n  talent_ids: []int\n  cursor: string,nullable,取得した最後のtalent_id\n  limit: int,取得したいtalent数\n}\n\n【レスポンス】\n200: {\n  movies: [{\n    id: string\n    name: string\n    image_url: string\n    description: string\n  }]\n}\n401: {\n  error_code: string\n}
                }
            }
        }
    }
}
"sample-service/repository/movie-service/internal-api/映画取得API" ..|> "sample-service/infra/CloudSQL/movie-service/movies"
"sample-service/repository/movie-service/internal-api/映画取得API" ..|> "sample-service/infra/CloudSQL/movie-service/movie_talents"
@enduml
