@startuml
hide circle
rectangle "sample-service" as sample-service {
    rectangle "infra" as sample-service/infra {
        rectangle "CloudSQL" as sample-service/infra/CloudSQL {
            rectangle "tv-show-service" as sample-service/infra/CloudSQL/tv-show-service {
                class "tv_show_talents" as sample-service/infra/CloudSQL/tv-show-service/tv_show_talents {
                    【スキーマ】\ntv_show_id: string PRIMARY_KEY\ntalent_id: string PRIMARY_KEY
                }
                class "tv_shows" as sample-service/infra/CloudSQL/tv-show-service/tv_shows {
                    【スキーマ】\nid: string PRIMARY_KEY\nname: string NOT_NULL\nimage_url: string NOT_NULL\ndescription: string NOT_NULL \nstart_at: timestamp NOT_NULL \nend_at: timestamp NOT_NULL \ntv_region: string NOT_NULL 
                }
            }
        }
    }
    rectangle "repository" as sample-service/repository {
        rectangle "tv-show-service" as sample-service/repository/tv-show-service {
            rectangle "internal-api" as sample-service/repository/tv-show-service/internal-api {
                class "テレビ番組取得API" as sample-service/repository/tv-show-service/internal-api/テレビ番組取得API {
                    GET /internal/api/v1/tv_shows\n指定したタレントに関連するテレビ番組一覧を返します\n\n【リクエスト】\n{\n  talent_ids: []int\n  cursor: string,nullable,取得した最後のtalent_id\n  limit: int,取得したいtalent数\n  tv_region: string\n}\n\n【レスポンス】\n200: {\n  tv_shows: [{\n    id: string\n    name: string\n    image_url: string\n    description: string\n    start_at: timestamp\n    end_at: timestamp\n  }]\n}\n401: {\n  error_code: string\n}
                }
            }
        }
    }
}
"sample-service/repository/tv-show-service/internal-api/テレビ番組取得API" ..|> "sample-service/infra/CloudSQL/tv-show-service/tv_shows"
"sample-service/repository/tv-show-service/internal-api/テレビ番組取得API" ..|> "sample-service/infra/CloudSQL/tv-show-service/tv_show_talents"
@enduml
