@startuml
hide circle
rectangle "sample-service" as sample-service {
    rectangle "infra" as sample-service/infra {
        rectangle "CloudSQL" as sample-service/infra/CloudSQL {
            rectangle "article-service" as sample-service/infra/CloudSQL/article-service {
                class "articles" as sample-service/infra/CloudSQL/article-service/articles {
                    【スキーマ】\nid: string PRIMARY_KEY\nname: string NOT_NULL\nimage_url: string NOT_NULL\ndescription: string NOT_NULL 
                }
                class "article_talents" as sample-service/infra/CloudSQL/article-service/article_talents {
                    【スキーマ】\narticle/id: string PRIMARY_KEY\ntalent_id: string PRIMARY_KEY
                }
            }
        }
    }
    rectangle "repository" as sample-service/repository {
        rectangle "article-service" as sample-service/repository/article-service {
            rectangle "batch" as sample-service/repository/article-service/batch {
                rectangle "purge-past-articles" as sample-service/repository/article-service/batch/purge-past-articles {
                    circle "1_過去データを削除" as sample-service/repository/article-service/batch/purge-past-articles/1_過去データを削除
                }
            }
        }
    }
}
"sample-service/repository/article-service/batch/purge-past-articles/1_過去データを削除" --|> "sample-service/infra/CloudSQL/article-service/articles"
"sample-service/repository/article-service/batch/purge-past-articles/1_過去データを削除" --|> "sample-service/infra/CloudSQL/article-service/article_talents"
@enduml
