@startuml
hide circle
rectangle "sample-service" as sample-service {
    rectangle "infra" as sample-service/infra {
        rectangle "CloudSQL" as sample-service/infra/CloudSQL {
            rectangle "user-service" as sample-service/infra/CloudSQL/user-service {
                class "follows" as sample-service/infra/CloudSQL/user-service/follows {
                    【スキーマ】\nuser_id: string PRIMARY_KEY\ntalent_id: string PRIMARY_KEY
                }
            }
            rectangle "tv-show-service" as sample-service/infra/CloudSQL/tv-show-service {
                class "tv_show_talents" as sample-service/infra/CloudSQL/tv-show-service/tv_show_talents {
                    【スキーマ】\ntv_show_id: string PRIMARY_KEY\ntalent_id: string PRIMARY_KEY
                }
                class "tv_shows" as sample-service/infra/CloudSQL/tv-show-service/tv_shows {
                    【スキーマ】\nid: string PRIMARY_KEY\nname: string NOT_NULL\nimage_url: string NOT_NULL\ndescription: string NOT_NULL \nstart_at: timestamp NOT_NULL \nend_at: timestamp NOT_NULL \ntv_region: string NOT_NULL 
                }
            }
        }
    }
    rectangle "repository" as sample-service/repository {
        rectangle "user-service" as sample-service/repository/user-service {
            rectangle "external-api" as sample-service/repository/user-service/external-api {
                rectangle "テレビ番組取得API" as sample-service/repository/user-service/external-api/テレビ番組取得API {
                    note "GET /api/v1/tv_shows\nフォローしてるタレントに関連するテレビ番組一覧を返します\n\n【リクエスト】\n{\n  cursor: string,nullable,取得した最後のtalent_id\n  limit: int,取得したいtalent数\n}\n\n【レスポンス】\n200: {\n  tv_shows: [{\n    id: string\n    name: string\n    description: string\n    start_at: timestamp\n    end_at: timestamp\n  }]\n}\n401: {\n  error_code: string\n}" as sample_service_repository_user_service_external_api_テレビ番組取得API_note
                    circle "2_タレントに関連するテレビ番組一覧を取得" as sample-service/repository/user-service/external-api/テレビ番組取得API/2_タレントに関連するテレビ番組一覧を取得
                    circle "3_レスポンス" as sample-service/repository/user-service/external-api/テレビ番組取得API/3_レスポンス
                    circle "1_フォローしてるタレントID一覧を取得" as sample-service/repository/user-service/external-api/テレビ番組取得API/1_フォローしてるタレントID一覧を取得
                }
            }
        }
        rectangle "tv-show-service" as sample-service/repository/tv-show-service {
            rectangle "internal-api" as sample-service/repository/tv-show-service/internal-api {
                class "テレビ番組取得API" as sample-service/repository/tv-show-service/internal-api/テレビ番組取得API {
                    GET /internal/api/v1/tv_shows\n指定したタレントに関連するテレビ番組一覧を返します\n\n【リクエスト】\n{\n  talent_ids: []int\n  cursor: string,nullable,取得した最後のtalent_id\n  limit: int,取得したいtalent数\n  tv_region: string\n}\n\n【レスポンス】\n200: {\n  tv_shows: [{\n    id: string\n    name: string\n    image_url: string\n    description: string\n    start_at: timestamp\n    end_at: timestamp\n  }]\n}\n401: {\n  error_code: string\n}
                }
            }
        }
    }
}
"sample-service/repository/user-service/external-api/テレビ番組取得API/2_タレントに関連するテレビ番組一覧を取得" --> "sample-service/repository/user-service/external-api/テレビ番組取得API/3_レスポンス"
"sample-service/repository/user-service/external-api/テレビ番組取得API/2_タレントに関連するテレビ番組一覧を取得" ..|> "sample-service/repository/tv-show-service/internal-api/テレビ番組取得API"
"sample-service/repository/user-service/external-api/テレビ番組取得API/1_フォローしてるタレントID一覧を取得" --> "sample-service/repository/user-service/external-api/テレビ番組取得API/2_タレントに関連するテレビ番組一覧を取得"
"sample-service/repository/user-service/external-api/テレビ番組取得API/1_フォローしてるタレントID一覧を取得" ..|> "sample-service/infra/CloudSQL/user-service/follows"
"sample-service/repository/tv-show-service/internal-api/テレビ番組取得API" ..|> "sample-service/infra/CloudSQL/tv-show-service/tv_shows"
"sample-service/repository/tv-show-service/internal-api/テレビ番組取得API" ..|> "sample-service/infra/CloudSQL/tv-show-service/tv_show_talents"
@enduml
